<?xml version="1.0" encoding="utf-8"?>
<!-- Generator: Adobe Illustrator 16.0.0, SVG Export Plug-In . SVG Version: 6.00 Build 0)  -->
<!DOCTYPE svg PUBLIC "-//W3C//DTD SVG 1.1//EN" "http://www.w3.org/Graphics/SVG/1.1/DTD/svg11.dtd">
<svg version="1.1" id="Layer_1" xmlns="http://www.w3.org/2000/svg" xmlns:xlink="http://www.w3.org/1999/xlink" x="0px" y="0px"
	 width="70.5px" height="57.5px" viewBox="10.5 5 70.5 57.5" enable-background="new 10.5 5 70.5 57.5" xml:space="preserve">
<path fill="#666666" d="M56.335,39.617c1.509,0.419,3.131-0.444,3.562-1.994c0.414-1.526-0.468-3.129-1.988-3.56l-1.184-0.333
	l-1.533,5.543L56.335,39.617z"/>
<path fill="#666666" d="M55.953,33.514l-10.105-2.859c-0.627-0.166-1.259,0.215-1.432,0.851l-0.898,3.229
	c-0.176,0.634,0.166,1.285,0.81,1.477l10.104,2.83L55.953,33.514z"/>
<path d="M65.136,47.527c1.502-0.775,2.509-2.251,2.647-3.946c0.188-2.311-1.527-3.828-3.844-3.844
	c-2.422-0.016-2.54,2.321-3.522,3.073L65.136,47.527z"/>
<path d="M79.116,59.951c0.329-0.98-0.896-1.624-0.896-1.624l-7.484-3.769c-0.559-0.32-1.836-1.494-1.836-1.494l-10.38-10.63
	c-0.873-0.84-1.96-1.508-3.226-1.86l-13.888-3.929l0,0l-8.346-8.752c-0.619-0.574-0.945-1.528-0.945-1.528l-4.198-11.263
	c-0.463-1.709-2.591-2.287-2.591-2.287l-3.73-1.155l-8.074-2.018c0,0-0.575-0.104-0.677,0.361c-0.103,0.464,0.434,0.578,0.434,0.578
	l8.264,3.58c1.832,0.618,2.652,2.681,2.652,2.681l3.924,13.682c0,0,0.565,1.696,1.525,2.576l8.945,10.553
	c0,0,0.873,1.419,3.072,2.149L59.861,51.3l6.703,5.646c0,0,0.527,0.653,2.111,1.056l8.768,2.548
	C78.107,60.724,78.867,60.69,79.116,59.951z"/>
<path d="M37.269,30.56l1.397-12.457c0.401-1.725-1.201-3.241-1.201-3.241l-2.74-2.781l-6.16-5.596c0,0-0.456-0.364-0.767-0.002
	c-0.31,0.361,0.109,0.715,0.109,0.715l5.587,7.062c1.323,1.411,1.07,3.617,1.07,3.617l-1.358,6.906c0,0-0.211,1.307,0.895,2.538
	L37.269,30.56z"/>
<g>
	<path fill="#3946E5" d="M63.404,20.227c-0.338-0.338-2.963-2.117-6.182-2.117c-0.358,0-0.709,0.021-1.052,0.056l-2.843-1.579
		c0,0.763,0.214,1.527,0.402,2.047c-1.645,0.441-3.066,1.001-4.299,1.001l-2.709-1.694c0,1.354,0.678,2.71,0.678,2.71
		s-0.678,1.354-0.678,2.709l2.709-1.694c1.232,0,2.654,0.56,4.299,1.001c-0.188,0.521-0.402,1.285-0.402,2.048l2.842-1.58
		c0.344,0.034,0.694,0.055,1.053,0.055c3.219,0,5.844-1.778,6.182-2.117C63.744,20.735,63.744,20.564,63.404,20.227z"/>
</g>
<g>
	<path fill="#2A3492" d="M43.485,51.508c-0.38-0.381-3.33-2.378-6.945-2.378c-0.404,0-0.798,0.023-1.183,0.062l-3.194-1.775
		c0,0.857,0.241,1.715,0.452,2.301c-1.847,0.495-3.444,1.125-4.83,1.125l-3.045-1.903c0,1.522,0.761,3.046,0.761,3.046
		s-0.761,1.521-0.761,3.044l3.045-1.903c1.385,0,2.981,0.63,4.83,1.125c-0.211,0.586-0.452,1.444-0.452,2.301l3.194-1.775
		c0.385,0.038,0.779,0.062,1.183,0.062c3.616,0,6.565-1.999,6.945-2.378C43.867,52.079,43.865,51.888,43.485,51.508z"/>
</g>
<g>
	<path fill="#5A53A3" d="M72.556,26.563c-0.171-0.172-1.504-1.075-3.138-1.075c-0.183,0-0.36,0.011-0.535,0.028l-1.441-0.802
		c0,0.387,0.107,0.775,0.202,1.039c-0.834,0.224-1.556,0.508-2.181,0.508l-1.376-0.86c0,0.688,0.345,1.375,0.345,1.375
		s-0.345,0.688-0.345,1.375l1.376-0.86c0.626,0,1.347,0.284,2.181,0.508c-0.095,0.264-0.202,0.651-0.202,1.039l1.441-0.802
		c0.174,0.017,0.353,0.028,0.535,0.028c1.634,0,2.967-0.903,3.138-1.075C72.728,26.821,72.728,26.735,72.556,26.563z"/>
</g>
</svg>
