<?xml version="1.0" encoding="utf-8"?>
<!-- Generator: Adobe Illustrator 16.0.0, SVG Export Plug-In . SVG Version: 6.00 Build 0)  -->
<!DOCTYPE svg PUBLIC "-//W3C//DTD SVG 1.1//EN" "http://www.w3.org/Graphics/SVG/1.1/DTD/svg11.dtd">
<svg version="1.1" id="Layer_1" xmlns="http://www.w3.org/2000/svg" xmlns:xlink="http://www.w3.org/1999/xlink" x="0px" y="0px"
	 width="69.5px" height="67.75px" viewBox="16.75 2.5 69.5 67.75" enable-background="new 16.75 2.5 69.5 67.75"
	 xml:space="preserve">
<g>
	<path fill="#006600" d="M80.186,4.725h-5.941c-1.229,0-2.223,0.995-2.223,2.222v20.67H69.27c-0.969-3.37-4.073-5.847-7.751-5.847
		H34.074c-3.678,0-6.782,2.476-7.75,5.847h-4.975c-1.228,0-2.223,0.995-2.223,2.222v6.23c0,1.228,0.995,2.222,2.223,2.222h4.719
		c0.476,3.999,3.881,7.111,8.006,7.111h6.333c4.328,0,6.11-3.59,7.173-5.736c0.114-0.229,0.252-0.507,0.39-0.769
		c0.158,0.292,0.318,0.61,0.448,0.87c1.059,2.107,2.831,5.634,6.907,5.634h6.193c4.124,0,7.53-3.113,8.007-7.111h2.497v8.203
		c0,7.131-5.412,7.213-5.467,7.213h-8.979c-1.23-1.298-3.854-3.319-8.258-3.319c-4.064,0-8.053,4.044-8.053,8.163
		c0,4.412,2.49,8.863,8.053,8.863c3.903,0,6.423-2.037,7.622-3.32h10.424c9.42-0.001,15.042-6.58,15.042-17.6V6.947
		C82.407,5.72,81.412,4.725,80.186,4.725z M26.006,33.848h-2.435v-1.786h2.435V33.848z M65.143,36.07v1.265
		c0,1.998-1.625,3.624-3.624,3.624h-6.193c-1.149,0-1.807-0.939-2.936-3.185c-0.892-1.775-2.002-3.985-4.435-3.985
		c-2.418,0-3.492,2.164-4.355,3.904c-1.102,2.22-1.775,3.266-3.192,3.266h-6.333c-1.998,0-3.624-1.625-3.624-3.624V36.07v-6.23
		c0-1.999,1.626-3.624,3.624-3.624h27.444c1.999,0,3.624,1.625,3.624,3.624V36.07z M69.588,33.848v-1.786h2.435v1.786H69.588z
		 M77.963,46.496c0,10.873-5.763,13.155-10.598,13.155h-11.47c-0.735,0-1.439,0.387-1.853,0.996
		c-0.064,0.094-1.617,2.324-4.724,2.324c-1.348,0-3.608-0.574-3.608-4.418c0-1.76,2.15-3.719,3.608-3.719
		c3.775,0,5.275,2.197,5.317,2.259c0.403,0.659,1.121,1.062,1.895,1.062h10.024c2.196,0,4.559-0.949,6.317-2.54
		c1.64-1.482,3.594-4.268,3.594-9.119V36.07v-6.23V9.169h1.496V46.496z"/>
</g>
</svg>
